<?xml version="1.0" encoding="UTF-8" standalone="no"?>
<svg
   xmlns:dc="http://purl.org/dc/elements/1.1/"
   xmlns:cc="http://creativecommons.org/ns#"
   xmlns:rdf="http://www.w3.org/1999/02/22-rdf-syntax-ns#"
   xmlns:svg="http://www.w3.org/2000/svg"
   xmlns="http://www.w3.org/2000/svg"
   xmlns:sodipodi="http://sodipodi.sourceforge.net/DTD/sodipodi-0.dtd"
   xmlns:inkscape="http://www.inkscape.org/namespaces/inkscape"
   width="111.39334"
   height="50.381336"
   viewBox="0 0 111.39334 50.381336"
   version="1.1"
   id="svg50"
   sodipodi:docname="logo.svg"
   inkscape:version="0.92.4 (5da689c313, 2019-01-14)">
  <metadata
     id="metadata54">
    <rdf:RDF>
      <cc:Work
         rdf:about="">
        <dc:format>image/svg+xml</dc:format>
        <dc:type
           rdf:resource="http://purl.org/dc/dcmitype/StillImage" />
        <dc:title>VidIQ YouTube Certified</dc:title>
      </cc:Work>
    </rdf:RDF>
  </metadata>
  <sodipodi:namedview
     pagecolor="#ffffff"
     bordercolor="#666666"
     borderopacity="1"
     objecttolerance="10"
     gridtolerance="10"
     guidetolerance="10"
     inkscape:pageopacity="0"
     inkscape:pageshadow="2"
     inkscape:window-width="1366"
     inkscape:window-height="705"
     id="namedview52"
     showgrid="false"
     inkscape:zoom="4"
     inkscape:cx="15.574013"
     inkscape:cy="24.280691"
     inkscape:window-x="-8"
     inkscape:window-y="-8"
     inkscape:window-maximized="1"
     inkscape:current-layer="g3960"
     fit-margin-top="0"
     fit-margin-left="0"
     fit-margin-right="0"
     fit-margin-bottom="0" />
  <!-- Generator: Sketch 50.2 (55047) - http://www.bohemiancoding.com/sketch -->
  <title
     id="title2">VidIQ YouTube Certified</title>
  <desc
     id="desc4">Created with Sketch.</desc>
  <defs
     id="defs6" />
  <g
     id="g3960"
     transform="translate(-0.335793,0.04922732)">
    <g
       id="g837">
      <path
         style="display:inline;fill:#000000;fill-rule:evenodd;stroke:none;stroke-width:1"
         inkscape:connector-curvature="0"
         id="vid"
         d="M 0.4803389,16.182842 C 0.06139296,15.379726 0.59958226,14.513311 1.4970958,14.513311 h 6.6958019 c 0.4192648,0 0.8968759,0.310235 1.0763786,0.681791 l 3.5278817,8.406341 h 0.179503 l 3.76605,-8.406341 c 0.359324,-0.743113 0.777313,-0.681791 1.614249,-0.681791 h 6.039007 c 0.897513,0 1.435703,0.866415 1.016438,1.669531 L 14.05304,39.244067 c -0.179822,0.307927 -0.65839,0.617503 -1.016757,0.617503 h -0.298746 c -0.359643,0 -0.837255,-0.309576 -1.016757,-0.617503 z M 28.939266,15.687686 c 0,-0.679483 0.537871,-1.174672 1.136001,-1.174672 h 6.576558 c 0.597492,0 1.136001,0.495189 1.136001,1.174672 v 22.382072 c 0,0.617502 -0.538509,1.174342 -1.136001,1.174342 h -6.576558 c -0.59813,0 -1.136001,-0.55684 -1.136001,-1.174342 z m 26.605076,16.199036 c -2.750249,0 -4.843066,-2.226041 -4.843066,-5.069585 0,-2.782223 2.092817,-4.944635 4.843066,-4.944635 2.75025,0 4.783763,2.162412 4.783763,4.944635 0,2.843544 -2.033513,5.069585 -4.783763,5.069585 z m -1.136,-17.991639 c 2.032876,0 4.245893,0.741794 4.962628,1.174343 V 1.6535021 c 0,-0.6201399 0.537871,-1.1746722 1.135682,-1.1746722 h 6.637455 c 0.597492,0 1.136001,0.5545323 1.136001,1.1746722 V 38.069659 c 0,0.617502 -0.538509,1.174342 -1.136001,1.174342 H 64.33328 c -0.597811,0 -1.015482,-0.55684 -1.254925,-1.236323 L 62.360663,35.96659 c 0,0 -2.750568,3.894914 -8.011624,3.894914 -6.75638,0 -11.839208,-5.87435 -11.839208,-12.983046 0,-8.718223 5.501455,-12.983375 11.898511,-12.983375" />
      <g
         transform="translate(-2.1762192,0.03200638)"
         id="g829">
        <path
           inkscape:label="Q"
           sodipodi:nodetypes="sssssccssccssssc"
           d="m 84.462438,19.946547 c 0,-5.787972 4.57939,-10.5766653 10.12676,-10.5766653 5.597422,0 10.177772,4.7886933 10.177772,10.5766653 0,5.735882 -4.58035,10.472155 -10.177772,10.472155 -5.54737,0 -10.12676,-4.736273 -10.12676,-10.472155 z m 19.515102,17.480296 6.92313,11.208015 c 0.42787,0.77707 0,1.665245 -0.85926,1.665245 h -7.7218 c -0.42915,0 -0.69761,-0.277596 -0.85925,-0.556181 l -5.699142,-9.898501 c -0.46581,0.02275 -0.89368,0.02275 -1.17362,0.02275 -10.731898,0 -19.2629,-8.821416 -19.2629,-19.918656 0,-11.09691 8.531002,-20.0307487 19.2629,-20.0307487 10.731902,0 19.317752,8.9338387 19.317752,20.0307487 0,7.212877 -4.02399,13.760116 -9.92781,17.477328 z"
           id="IQ"
           inkscape:connector-curvature="0"
           style="display:inline;fill:#3499b8;fill-opacity:1;fill-rule:evenodd;stroke:none;stroke-width:1" />
      </g>
      <path
         inkscape:label="&gt;"
         sodipodi:nodetypes="cssccsscc"
         d="m 37.479886,4.4857444 c 0.07397,0.038573 0.137098,0.1144011 0.137098,0.2195711 v 0.129237 c 0,0.1025324 -0.06313,0.1806681 -0.137098,0.2212195 l -8.4277,4.0393162 C 28.889263,9.1735535 28.726339,9.0683836 28.726339,8.8758468 V 0.63962434 c 0,-0.19550396 0.162924,-0.2977067 0.325847,-0.22187886 z"
         id="path3946"
         inkscape:connector-curvature="0"
         style="display:inline;fill:#3499b8;fill-opacity:1;fill-rule:evenodd;stroke:none;stroke-width:1" />
    </g>
  </g>
</svg>
